<?xml version="1.0" encoding="UTF-8" standalone="no"?>
<svg
   width="462.71713"
   zoomAndPan="magnify"
   viewBox="0 0 347.03785 385.52759"
   height="514.0368"
   preserveAspectRatio="xMidYMid"
   version="1.0"
   id="svg9"
   xmlns="http://www.w3.org/2000/svg"
   xmlns:svg="http://www.w3.org/2000/svg">
  <defs
     id="defs4" />
  <style>
    path { fill: #000; }
    @media (prefers-color-scheme: dark) {
        path { fill: #FFF; }
    }
  </style>
  <path
     id="path8"
     clip-path="none"
     d="m 196.30896,0.01011987 c -46.83138,-0.0032 -93.66276,-0.0066 -140.49414,-0.009800006 0,83.824222136 0,167.648440136 0,251.472660136 -18.535174,2.54157 -37.070234,5.08393 -55.60547199,7.625 -0.6157,17.40573 -0.04689,35.02703 4.07307999,52.01929 3.825881,16.05002 11.031453,31.55181 22.269578,43.76959 8.167586,8.91344 18.217607,16.07926 29.270624,20.96893 -0.002,3.22266 -0.006,6.44531 -0.008,9.66797 51.25447,-0.008 102.50936,0.0448 153.76353,-0.0878 21.34598,-0.42765 42.90147,-2.49212 63.28539,-9.16133 13.47475,-4.41353 26.44156,-10.89411 37.23105,-20.18924 11.47748,-10.00636 20.08649,-22.94018 26.39571,-36.71541 9.77355,-21.47641 12.78518,-45.89803 8.90821,-69.14701 -3.22209,-19.01438 -12.14005,-37.10996 -25.66371,-50.90615 -8.17336,-8.39435 -17.92733,-15.19455 -28.47682,-20.26379 12.24553,-9.06215 22.43678,-21.01194 28.94586,-34.81885 8.24473,-17.00453 11.25619,-36.52552 8.33387,-55.209528 C 325.62788,69.827022 317.09392,51.560576 304.4714,36.831313 295.89129,26.904053 285.22238,18.805212 273.35522,13.205963 261.93329,7.7314739 249.5603,4.5061289 237.07732,2.5836339 223.60207,0.47891487 209.93245,-0.08573813 196.30896,0.01011987 Z M 197.99841,153.78551 c -9.44197,0.1518 -18.88543,0.0653 -28.32813,0.082 0,-44.84896 1e-5,-89.697915 0,-134.546873 9.44271,-6.51e-4 18.88542,-0.0013 28.32813,-0.002 0,44.822266 0,89.644523 0,134.466793 z M 150.34607,19.320667 c 0,7.964844 0,15.929687 0,23.894531 -15.62631,0 -31.25261,0 -46.87891,0 0,43.328124 0,86.656252 0,129.984372 32.11436,-0.013 64.22934,0.0641 96.34321,-0.11263 12.92902,-0.32039 26.00104,-0.91147 38.54777,-4.30774 11.68815,-3.30107 22.80019,-9.50057 30.73822,-18.82047 7.26844,-8.51538 11.53148,-19.33687 12.9057,-30.39033 1.33342,-10.07637 0.76051,-20.430048 -1.84474,-30.261658 -3.20114,-11.91314 -9.72729,-23.132764 -19.38917,-30.939301 -6.98936,-5.669496 -15.44807,-9.344417 -24.21406,-11.22921 -6.32576,-1.440475 -12.78858,-2.140921 -19.24123,-2.731627 0.0227,-8.180046 0.003,-16.360711 0.01,-24.541015 12.11938,0.804919 24.18834,2.509635 35.86372,6.142309 4.62769,1.432336 9.13701,3.208953 13.40314,5.39318 8.98709,4.561911 17.2095,10.868063 23.72533,18.616855 6.41585,7.583512 11.44457,16.452422 14.9417,25.788569 2.78336,7.34419 4.40308,15.11261 4.88326,22.90439 0.71834,11.625088 -1.30269,23.364618 -5.9873,34.128748 -3.79936,8.76501 -9.15199,16.86423 -16.03492,23.53575 -6.57001,6.46023 -14.30666,11.63356 -22.49707,15.80855 -5.18684,2.70441 -10.47407,5.21093 -15.64552,7.94337 -0.9028,0.89706 -2.06449,2.06006 -1.60749,3.46087 0.40978,1.4267 1.99717,1.82482 3.26179,2.13288 9.78607,3.06292 19.74629,5.47578 29.0829,9.71554 4.12727,1.87805 8.13363,4.09368 11.89478,6.52556 7.69509,5.01383 14.61107,11.31325 19.97446,18.75084 2.10881,2.8973 4.01603,5.93431 5.65678,9.02054 4.69308,8.71738 7.5913,18.35138 8.75535,28.1721 0.78079,6.37679 0.89705,12.76925 0.45384,19.19609 -0.77174,11.94529 -3.72409,23.89083 -8.80719,34.83067 -3.15386,6.75778 -6.90515,13.22407 -11.46405,19.15975 -4.75431,6.12871 -10.52832,11.71764 -17.12786,15.94011 -9.90004,6.46165 -21.21614,10.75339 -32.63908,13.58786 -17.61331,4.35424 -35.86059,5.44513 -53.98059,5.5593 -9.47399,0.0557 -18.94828,0.001 -28.42239,0.0163 9.19375,-6.39071 17.23525,-14.49242 23.32422,-23.90235 13.31422,-0.0656 26.74065,0.20556 39.89617,-2.16993 10.47412,-1.9641 20.76568,-5.47829 29.81443,-11.17858 10.78959,-6.88789 18.91845,-17.45891 23.87248,-29.1766 3.42952,-8.05595 5.24718,-16.74781 5.63163,-25.48295 0.69435,-13.09395 -1.5065,-26.5107 -7.50991,-38.24857 -5.25454,-10.39846 -13.32054,-19.40828 -23.2766,-25.49772 -8.46756,-5.28488 -18.11597,-8.39837 -27.89232,-10.16801 -17.56129,-3.30912 -35.50887,-3.30826 -53.31478,-3.28642 -16.2639,0.0417 -32.52784,-0.0148 -48.7918,0.004 -11.09753,-6.6e-4 -22.19505,-0.001 -33.29258,-0.002 0,42.18424 0,84.36849 0,126.55273 -5.47463,-0.2142 -11.06502,-1.16243 -16.19988,-3.40237 -4.62304,-1.97125 -8.82249,-4.96821 -12.10871,-8.77731 -0.0439,-4.64592 -0.008,-9.31993 -0.0195,-13.97657 -1e-5,-92.7207 0,-185.4414 0,-278.162103 25.06901,0 50.13802,0 75.20703,0 z m 0,43.21875 c 0,30.444015 0,60.888023 0,91.332033 -9.1849,0 -18.3698,0 -27.55469,0 0,-30.44401 0,-60.888018 0,-91.332033 9.18489,0 18.36979,0 27.55469,0 z m 68.75976,1.445313 c 7.10169,0.755374 14.33501,1.708141 21.0293,4.402342 7.30901,2.91905 13.42538,8.55084 17.12828,15.47629 5.06156,9.07936 6.69529,19.753288 5.91,30.033478 -0.57377,8.22475 -3.08164,16.54613 -8.34902,23.00962 -2.03441,2.54605 -4.63369,4.77532 -7.22051,6.58999 -7.38339,5.10439 -16.2119,7.70093 -25.05292,8.75841 -1.73879,0.22459 -3.48305,0.40418 -5.22833,0.56971 0,-29.67252 0,-59.345048 0,-89.017575 0.5944,0.05925 1.1888,0.11849 1.7832,0.177735 z m -68.75976,152.42968 c -0.0363,17.35776 0.12745,34.71814 -0.20574,52.07365 -0.2786,8.96803 -0.94,17.95267 -2.9241,26.75393 -1.38582,6.06556 -4.14091,11.92846 -8.5701,16.36938 -4.36324,4.4826 -9.92234,7.71938 -15.85475,9.64289 0,-34.94662 0,-69.89323 0,-104.83985 9.18489,1e-5 18.36979,0 27.55469,0 z m 46.01562,0 c 0.50647,0.076 1.29927,-0.13211 1.6367,0.11172 -0.0436,16.8634 0.14481,33.73034 -0.24264,50.59063 -0.43591,12.0991 -1.60258,24.26459 -4.2156,36.10014 -2.07863,9.52171 -5.37441,18.936 -10.6072,27.28117 -5.78996,9.29606 -13.90346,17.09535 -23.34279,22.63472 -10.26884,6.0652 -21.84458,9.79112 -33.54431,11.59802 -9.72813,1.50056 -19.68441,1.77176 -29.51017,1.11142 -5.28506,-0.37077 -10.3877,-1.04984 -15.5746,-2.13463 -7.50058,-1.57809 -15.08877,-4.10106 -21.97383,-7.7994 -11.607054,-6.11523 -21.327603,-15.72755 -27.562786,-27.2716 -4.465972,-8.16167 -7.3782,-17.11743 -9.226955,-26.17391 -1.627286,-7.92135 -2.459055,-16.08484 -2.753787,-24.17913 -0.04644,-0.78457 -0.0012,-1.57924 -0.105468,-2.35743 4.996982,-0.60698 9.988059,-1.34375 14.981724,-2.00833 3.126535,-0.42952 6.253069,-0.85903 9.379604,-1.28854 1.122724,13.05837 3.305357,26.22025 8.587028,38.30045 3.97168,9.00058 10.41936,16.96932 18.69181,22.35142 9.3557,6.23626 20.58452,9.30649 31.7629,9.65758 12.71357,0.57054 25.76184,-1.78343 36.93287,-8.05554 9.62134,-5.36172 17.75599,-13.59186 22.37891,-23.64454 4.08584,-8.66581 5.56439,-18.2521 6.52298,-27.70121 1.36042,-13.90635 1.0185,-27.89858 1.09249,-41.85152 5.7e-4,-8.42383 0.001,-16.84766 0.002,-25.27149 8.89714,0 17.79428,1e-5 26.69141,0 z m 21.28125,0.73047 c 7.98919,0.62308 16.05785,1.56143 23.7793,3.57032 1.59765,0.42199 3.2834,0.90844 4.86792,1.43451 8.26424,2.77215 15.89009,7.71657 21.33031,14.58089 6.20593,7.662 9.62479,17.3289 10.46291,27.09832 0.53198,6.42557 0.23589,12.94137 -1.09474,19.25737 -1.54398,7.36934 -4.83468,14.54531 -9.54412,20.51367 -1.98415,2.51215 -4.37286,5.06722 -7.0228,7.08263 -5.95621,4.62175 -13.18298,7.38646 -20.47095,9.27872 -6.00836,1.61745 -12.21527,2.34312 -18.4212,2.60243 -4.50593,0.23238 -9.06644,0.32652 -13.59757,0.36825 5.22816,-14.4744 7.42089,-29.83733 8.60151,-45.1203 1.2298,-17.47237 0.66032,-34.99886 0.78912,-52.49806 0,-2.73073 0,-5.46145 0,-8.19218 0.10677,0.008 0.21354,0.0156 0.32031,0.0234 z"
     style="stroke-width:0.99975;stroke-dasharray:none" />
</svg>
